<svg width="17" height="17" viewBox="0 0 17 17" fill="none" xmlns="http://www.w3.org/2000/svg">
<path d="M8.49226 0.607113C8.43619 0.684161 7.89461 1.81676 7.67621 2.31295C6.53255 4.91409 6.31119 5.40257 6.2197 5.51198C6.1592 5.58595 6.10902 5.60906 5.90095 5.66454C5.59105 5.74621 5.43316 5.77703 3.5546 6.12682C1.34697 6.53672 0.814242 6.64613 0.759642 6.70314C0.716847 6.74937 0.738982 6.78327 0.929346 6.96819C1.38829 7.41044 1.5816 7.58149 3.02335 8.80038C4.1862 9.78351 4.46067 10.0224 4.67022 10.2412C4.88272 10.46 4.88715 10.4739 4.86649 10.7158C4.8414 11.0086 4.76319 11.44 4.44002 13.0842C4.26293 13.9872 4.0947 14.8502 4.06519 15.0027C3.97517 15.482 3.87778 16.1323 3.8822 16.217C3.88958 16.3495 3.91024 16.3449 4.3987 16.0845C4.86059 15.8379 5.00373 15.7563 6.55025 14.8533C7.87542 14.0797 8.09383 13.9549 8.37273 13.8147C8.6295 13.6852 8.7328 13.6498 8.80806 13.6636C8.95563 13.6929 9.40129 13.9225 10.8785 14.7284C11.4318 15.0305 12.0649 15.371 12.2833 15.4866C12.7408 15.727 13.427 16.0568 13.4963 16.0691C13.5332 16.0752 13.545 16.0706 13.5598 16.0429C13.5819 15.9982 13.576 15.9289 13.4934 15.4188C13.4211 14.9704 13.3989 14.8486 13.0285 12.8223C12.6537 10.7774 12.5858 10.3722 12.5858 10.1688C12.5858 9.99308 12.6021 9.97767 14.3419 8.46137C14.8894 7.98368 15.4044 7.53372 15.4856 7.46129C15.9179 7.07605 16.5495 6.48278 16.5613 6.44888C16.5761 6.40728 16.5717 6.38262 16.5422 6.36721C16.4684 6.32561 15.5343 6.20387 13.9804 6.03437C11.7801 5.79398 11.3566 5.74312 11.2031 5.69535C11.1603 5.68149 11.1072 5.65067 11.0821 5.62447C10.9906 5.52893 10.8047 5.15448 9.98271 3.40395C9.12976 1.58716 8.68115 0.661047 8.61475 0.576294C8.58523 0.539311 8.53063 0.55318 8.49226 0.607113Z" fill="#E6AE3F"/>
</svg>
