<svg width="150" height="150" viewBox="0 0 150 150" fill="none" xmlns="http://www.w3.org/2000/svg">
<g filter="url(#filter0_d_512_9413)">
<path d="M50 30H100V80H50V30Z" fill="#EEEEEE"/>
<path d="M81 55L71 49.2265L71 60.7735L81 55Z" fill="#BB8C5F"/>
<path d="M50 30V28.5H48.5V30H50ZM100 30H101.5V28.5H100V30ZM100 80V81.5H101.5V80H100ZM50 80H48.5V81.5H50V80ZM50 31.5H100V28.5H50V31.5ZM98.5 30V80H101.5V30H98.5ZM100 78.5H50V81.5H100V78.5ZM51.5 80V30H48.5V80H51.5Z" fill="#BB8C5F"/>
</g>
<defs>
<filter id="filter0_d_512_9413" x="0" y="0" width="150" height="150" filterUnits="userSpaceOnUse" color-interpolation-filters="sRGB">
<feFlood flood-opacity="0" result="BackgroundImageFix"/>
<feColorMatrix in="SourceAlpha" type="matrix" values="0 0 0 0 0 0 0 0 0 0 0 0 0 0 0 0 0 0 127 0" result="hardAlpha"/>
<feOffset dy="20"/>
<feGaussianBlur stdDeviation="25"/>
<feColorMatrix type="matrix" values="0 0 0 0 0 0 0 0 0 0 0 0 0 0 0 0 0 0 0.1 0"/>
<feBlend mode="normal" in2="BackgroundImageFix" result="effect1_dropShadow_512_9413"/>
<feBlend mode="normal" in="SourceGraphic" in2="effect1_dropShadow_512_9413" result="shape"/>
</filter>
</defs>
</svg>
