<svg width="48" height="48" viewBox="0 0 48 48" fill="none" xmlns="http://www.w3.org/2000/svg">
<rect width="48" height="48" fill="#F7F7F7"/>
<rect width="48" height="48" fill="#F3F6F8"/>
<path d="M44.0392 32.8688C43.8593 32.5559 43.6194 32.2817 43.3334 32.0616C43.0474 31.8415 42.7208 31.68 42.3724 31.5862C42.0239 31.4924 41.6603 31.4682 41.3025 31.515C40.9446 31.5617 40.5995 31.6786 40.2869 31.8588L33.5831 35.7288C33.2179 35.1799 32.6661 34.782 32.03 34.6088L21.7725 31.8588C20.9829 31.6475 20.1525 31.6404 19.3594 31.8382L15.75 32.7443V31.5625C15.75 31.3802 15.6776 31.2053 15.5486 31.0764C15.4197 30.9474 15.2448 30.875 15.0625 30.875H9.5625C9.38016 30.875 9.2053 30.9474 9.07636 31.0764C8.94743 31.2053 8.875 31.3802 8.875 31.5625V32.25H4.0625C3.88016 32.25 3.7053 32.3224 3.57636 32.4514C3.44743 32.5803 3.375 32.7552 3.375 32.9375V42.5625C3.375 42.7448 3.44743 42.9197 3.57636 43.0486C3.7053 43.1776 3.88016 43.25 4.0625 43.25H8.875V43.9375C8.875 44.1198 8.94743 44.2947 9.07636 44.4236C9.2053 44.5526 9.38016 44.625 9.5625 44.625H15.0625C15.2448 44.625 15.4197 44.5526 15.5486 44.4236C15.6776 44.2947 15.75 44.1198 15.75 43.9375V42.9874L16.6341 43.4294C17.3025 43.7629 18.0391 43.9368 18.786 43.9375H29.0827C29.9274 43.9371 30.7572 43.7147 31.4889 43.2926L43.0389 36.6239C43.6676 36.2567 44.1256 35.6559 44.313 34.9525C44.5003 34.249 44.402 33.5 44.0392 32.8688ZM4.75 41.875V33.625H8.875V41.875H4.75ZM14.375 43.25H10.25V32.25H14.375V43.25ZM42.3494 35.4359L30.7994 42.1046C30.2768 42.4064 29.684 42.5652 29.0806 42.5653H18.786C18.2527 42.5644 17.7268 42.4402 17.2494 42.2023L15.75 41.4501V34.1626L19.6921 33.1767C20.2588 33.035 20.8522 33.04 21.4164 33.1912L31.6739 35.9412C31.8513 35.9851 32.0183 36.0639 32.1649 36.1731C32.3115 36.2822 32.4349 36.4195 32.5279 36.577C32.6208 36.7344 32.6814 36.9088 32.7062 37.0899C32.7309 37.271 32.7193 37.4553 32.672 37.6318C32.6247 37.8084 32.5426 37.9738 32.4306 38.1183C32.3187 38.2628 32.179 38.3835 32.0198 38.4734C31.8606 38.5632 31.6851 38.6205 31.5035 38.6417C31.3219 38.6629 31.1379 38.6477 30.9623 38.597L22.7625 36.3984C22.5867 36.3522 22.3997 36.3775 22.2425 36.4689C22.0854 36.5602 21.9707 36.71 21.9237 36.8856C21.8768 37.0612 21.9012 37.2483 21.9918 37.4059C22.0824 37.5635 22.2317 37.6788 22.4071 37.7266L30.6055 39.9266C30.8391 39.9893 31.08 40.0212 31.3219 40.0215C31.7016 40.0244 32.0776 39.9476 32.4258 39.7962C32.774 39.6448 33.0866 39.4221 33.3435 39.1425C33.6003 38.8628 33.7957 38.5325 33.917 38.1727C34.0383 37.8129 34.0829 37.4316 34.0478 37.0536L40.9723 33.0558C41.2892 32.8812 41.6613 32.8361 42.0107 32.9299C42.3601 33.0237 42.6596 33.2492 42.8464 33.559C43.0274 33.8743 43.0767 34.2482 42.9836 34.5996C42.8905 34.951 42.6626 35.2515 42.3494 35.4359Z" fill="black"/>
<rect x="16.75" y="3.75" width="24.5" height="24.5" rx="3.25" stroke="black" stroke-width="1.5"/>
<path d="M30.0157 9.01562C26.6304 9.01562 23.8023 11.437 23.1667 14.6375L21.8392 12.9779L21 13.6494L23.149 16.3357C23.2538 16.4663 23.4096 16.5372 23.5686 16.5372C23.6497 16.5372 23.7319 16.5189 23.8088 16.4808L27.0323 14.869L26.5515 13.9078L24.1827 15.092C24.6222 12.2638 27.0662 10.0901 30.0157 10.0901C33.2742 10.0901 35.9255 12.7415 35.9255 15.9999C35.9255 19.2584 33.2742 21.9097 30.0157 21.9097V22.9842C33.8667 22.9842 37 19.851 37 15.9999C37 12.1489 33.8667 9.01562 30.0157 9.01562Z" fill="black"/>
</svg>
