<svg width="48" height="48" viewBox="0 0 48 48" fill="none" xmlns="http://www.w3.org/2000/svg">
<rect width="48" height="48" fill="#F7F7F7"/>
<rect width="48" height="48" fill="#F7F7F7"/>
<path d="M43.5669 24.2967H39.8679V14.3023C39.8679 12.9724 38.786 11.8905 37.4562 11.8905H31.8899V9.49444C31.8899 8.20512 30.841 7.15625 29.5517 7.15625H4.33819C3.04895 7.15625 2 8.20512 2 9.49444V13.5474C2 13.9035 2.28858 12.9029 2.64453 12.9029C3.00048 12.9029 3.28906 13.9035 3.28906 13.5474V9.49444C3.28906 8.91599 3.75974 8.44531 4.33819 8.44531H29.5516C30.1301 8.44531 30.6008 8.91599 30.6008 9.49444V29.794H3.28906V13.5474C3.28906 13.1914 3.00048 12.9029 2.64453 12.9029C2.28858 12.9029 2 13.1914 2 13.5474V35.3953C2 36.6846 3.04895 37.7335 4.33819 37.7335H5.81941C6.14348 39.5004 7.69465 40.8435 9.55373 40.8435C11.4128 40.8435 12.964 39.5004 13.2881 37.7335H24C24.356 37.7335 24.1855 37.445 24.1855 37.089C24.1855 36.7329 24.356 36.4444 24 36.4444H13.3024C13.0129 34.6363 11.4421 33.2504 9.55365 33.2504C7.66517 33.2504 6.09449 34.6364 5.80497 36.4445H4.33819C3.75974 36.4445 3.28906 35.9738 3.28906 35.3954V31.083H30.6008V36.4445L24 36.4444C23.644 36.4444 24.1855 36.7329 24.1855 37.089C24.1855 37.445 23.644 37.7335 24 37.7335L34.8561 37.7336C35.1802 39.5005 36.7314 40.8436 38.5904 40.8436C40.4494 40.8436 42.0006 39.5005 42.3247 37.7336H43.5882C44.918 37.7336 45.9999 36.6516 45.9999 35.3218V26.73C46 25.3882 44.9085 24.2967 43.5669 24.2967ZM9.55365 34.5395C10.9363 34.5395 12.0611 35.6644 12.0611 37.047C12.0611 38.4297 10.9363 39.5546 9.55365 39.5546C8.171 39.5546 7.04616 38.4297 7.04616 37.047C7.04616 35.6644 8.17109 34.5395 9.55365 34.5395ZM38.5905 39.5545C37.2078 39.5545 36.083 38.4296 36.083 37.0469C36.083 35.6643 37.2078 34.5395 38.5905 34.5395C39.9731 34.5395 41.098 35.6643 41.098 37.0469C41.098 38.4296 39.9731 39.5545 38.5905 39.5545ZM44.7109 30.2245H42.9957C42.6404 30.2245 42.3512 29.9354 42.3512 29.58C42.3512 29.2246 42.6403 28.9355 42.9957 28.9355H44.7109V30.2245ZM44.7109 27.6464H42.9957C41.9296 27.6464 41.0621 28.5139 41.0621 29.58C41.0621 30.6461 41.9295 31.5136 42.9957 31.5136H44.7109V35.3217C44.7109 35.9408 44.2073 36.4444 43.5882 36.4444H42.3392C42.0497 34.6363 40.4789 33.2504 38.5905 33.2504C36.702 33.2504 35.1313 34.6363 34.8418 36.4444H31.8898V13.1796H37.4561C38.0752 13.1796 38.5788 13.6832 38.5788 14.3023V14.4524H34.2636C33.9076 14.4524 33.6191 14.7409 33.6191 15.097V24.9413C33.6191 25.2973 33.9076 25.5858 34.2636 25.5858H43.5668C44.1976 25.5858 44.7108 26.0991 44.7108 26.7299L44.7109 27.6464ZM38.5789 15.7415V24.2967H34.9082V15.7415H38.5789Z" fill="black"/>
</svg>
