<svg width="21" height="20" viewBox="0 0 21 20" fill="none" xmlns="http://www.w3.org/2000/svg">
<path d="M3.13477 20H9.93001V12.8906H7.48861V10.5469H9.93001V7.61719C9.93001 6.00174 11.299 4.6875 12.9818 4.6875H16.0335V7.03125H13.5921C12.919 7.03125 12.3714 7.55692 12.3714 8.20312V10.5469H15.9234L15.5165 12.8906H12.3714V20H17.8646C19.5473 20 20.9163 18.6858 20.9163 17.0703V2.92969C20.9163 1.31424 19.5473 0 17.8646 0H3.13477C1.45201 0 0.0830078 1.31424 0.0830078 2.92969V17.0703C0.0830078 18.6858 1.45201 20 3.13477 20ZM1.30371 2.92969C1.30371 1.96045 2.12514 1.17188 3.13477 1.17188H17.8646C18.8742 1.17188 19.6956 1.96045 19.6956 2.92969V17.0703C19.6956 18.0396 18.8742 18.8281 17.8646 18.8281H13.5921V14.0625H16.5506L17.3644 9.375H13.5921V8.20312H17.2542V3.51562H12.9818C10.6259 3.51562 8.70931 5.35553 8.70931 7.61719V9.375H6.2679V14.0625H8.70931V18.8281H3.13477C2.12514 18.8281 1.30371 18.0396 1.30371 17.0703V2.92969Z" fill="black"/>
</svg>
