<svg width="25" height="24" viewBox="0 0 25 24" fill="none" xmlns="http://www.w3.org/2000/svg">
<path d="M5.13477 22H19.8646C21.5473 22 22.9163 20.6858 22.9163 19.0703V4.92969C22.9163 3.31424 21.5473 2 19.8646 2H5.13477C3.45201 2 2.08301 3.31424 2.08301 4.92969V19.0703C2.08301 20.6858 3.45201 22 5.13477 22ZM3.30371 4.92969C3.30371 3.96045 4.12514 3.17188 5.13477 3.17188H19.8646C20.8742 3.17188 21.6956 3.96045 21.6956 4.92969V19.0703C21.6956 20.0396 20.8742 20.8281 19.8646 20.8281H5.13477C4.12514 20.8281 3.30371 20.0396 3.30371 19.0703V4.92969Z" fill="black"/>
<path d="M12.4993 17C15.3712 17 17.7077 14.7569 17.7077 12C17.7077 9.24306 15.3712 7 12.4993 7C9.62753 7 7.29102 9.24306 7.29102 12C7.29102 14.7569 9.62753 17 12.4993 17ZM12.4993 8.11111C14.7331 8.11111 16.5503 9.85561 16.5503 12C16.5503 14.1444 14.7331 15.8889 12.4993 15.8889C10.2656 15.8889 8.44842 14.1444 8.44842 12C8.44842 9.85561 10.2656 8.11111 12.4993 8.11111Z" fill="black"/>
<path d="M18.7493 8C19.8981 8 20.8327 7.10278 20.8327 6C20.8327 4.89722 19.8981 4 18.7493 4C17.6006 4 16.666 4.89722 16.666 6C16.666 7.10278 17.6006 8 18.7493 8ZM18.7493 5.33333C19.1322 5.33333 19.4438 5.63247 19.4438 6C19.4438 6.36753 19.1322 6.66667 18.7493 6.66667C18.3665 6.66667 18.0549 6.36753 18.0549 6C18.0549 5.63247 18.3665 5.33333 18.7493 5.33333Z" fill="black"/>
</svg>
